<svg height="512" viewBox="0 0 60 60" width="512" xmlns="http://www.w3.org/2000/svg"><path id="Shape" d="m6 40.53v2.24l-4 3.29c-1.126674 1.0022832-1.25722541 2.716805-.29529781 3.8781237.9619276 1.1613188 2.670779 1.3522516 3.86529781.4318763l.43-.37v1.54c-2.87 1.81-3.91 2.46-4 2.52-1.20398072.9720212-1.3920211 2.7360192-.41999995 3.94.97202114 1.2039807 2.73601919 1.3920211 3.93999995.42l2.78-1.69c2.76 2.62 7.62 4.27 12.7 4.27 8.55 0 15-4.3 15-10v-11c24.79-15 23.77-14.41 23.87-14.49.6767152-.5577768 1.0864878-1.3753362 1.1283815-2.2512948s-.2879858-1.7288926-.9083815-2.3487052c-1.1073747-1.1035822-2.865879-1.2024712-4.09-.23l-20 12.32c0-6.64 0-6.3-.14-7.12l24-19.39c.6683388-.55597204 1.0734607-1.36630503 1.1171586-2.23456314.0436978-.8682581-.2780178-1.71517153-.8871586-2.33543686-1.1271794-1.14830943-2.9483347-1.23544604-4.18-.2l-23.91 19.68c-.31-.17-.64-.34-1-.5v-11.9c0-4.64-6.31-8-15-8s-15 3.37-15 8v24c0 3 1.82 5.67 5 7.53zm7.61-18.53 2.18 2c-5.33 2.51-2.74 8 5.21 8 1.0488745.0031687 2.0949966-.1074788 3.12-.33l1.88 1.74c-13.31 3.27-25.43-7.27-12.39-11.41zm7.39 8c-3.72 0-6-1.46-6-2.5s2.28-2.5 6-2.5 6 1.45 6 2.5-2.28 2.5-6 2.5zm-16.69 18.82c-.33889584.1934064-.76788188.1141066-1.01524087-.1876714s-.24091902-.7379844.01524087-1.0323286l2.69-2.24v2.1zm3.69-17.41c3.58 3.72 11.49 5.85 19 3.81v3.37l-19 11.75zm2.09 24.24 16.91-10.24v12.72c-6.13 1.92-13.33.53-16.91-2.48zm23.91-4.65c0 2.61-1.94 4.88-5 6.34v-13.14l5-3zm23.19-28.74c.4583963-.4004064 1.1545935-.3533963 1.555.105.4004064.4583964.3533963 1.1545935-.105 1.555-58.46 35.39-54.53 33.14-54.96 33.08-.29862537-.050207-.54430722-.262792-.63690374-.5511039-.09259651-.2883119-.01664206-.6041962.19690374-.8188961 56.33-34.83 53.85-33.28 53.95-33.37zm-28.19 15.09v-2.79c1.8741521-.6774962 3.5797506-1.7520233 5-3.15v2.85zm-.78-4.63-1.95-1.78c5.26-2.53 2.64-7.94-5.27-7.94-1.0080608-.0013022-2.0135057.1025938-3 .31l-2-1.86c1.6495433-.3015246 3.3231262-.4521471 5-.45 7.29 0 13 2.63 13 6 0 2.1-2.24 4.35-5.78 5.72zm29-29.46c.3108211-.24651328.7295448-.30847987 1.0984421-.16255756.3688973.1459223.6319238.47756444.69.87000002.0580762.39243557-.097621.78604429-.4084421 1.03255754l-23.6 19c-.3746713-.5330677-.8185613-1.0139485-1.32-1.43zm-47.22 18.15v-4.19c7.55 2.05 15.44-.11 19-3.81v6.73c-5.53-1.75-13.91-1.59-19 1.27zm19-12.41c0 3.3-5.56 7-13 7-1.6848275.0034382-3.3638202-.1980409-5-.6l1.89-1.73c1.0217374.2218029 2.0644677.3324463 3.11.33 8 0 10.47-5.49 5.21-8l2.18-2c3.41 1.11 5.61 2.92 5.61 5zm-7 .5c0 1-2.28 2.5-6 2.5s-6-1.45-6-2.49 2.28-2.51 6-2.51 6 1.46 6 2.51zm-6-6.5c1.6969115-.00581351 3.3907457.14482392 5.06.45l-2.06 1.87c-.9861407-.21076661-1.9915894-.31801447-3-.32-8 0-10.45 5.45-5.27 7.94l-1.95 1.78c-3.54-1.37-5.78-3.62-5.78-5.72 0-3.36 5.71-6 13-6zm-13 10.41c1.42024936 1.3979767 3.12584794 2.4725038 5 3.15v6.29c-1.22290193 1.0387533-1.94941762 2.5462734-2 4.15v11.15c-1.78326247-1.1215752-2.90401982-3.0455419-3-5.15z" transform="translate(-1 -1)"/></svg>